HIERARCHY
ROOT Hips
{
	OFFSET 0.000000 0.000000 0.000000 
	CHANNELS 6 Xposition Yposition Zposition Zrotation Xrotation Yrotation
	JOINT Spine
	{
		OFFSET -0.000000 8.061080 0.000000 
		CHANNELS 3 Zrotation Xrotation Yrotation
		JOINT Spine1
		{
			OFFSET -0.000000 20.532677 0.000000 
			CHANNELS 3 Zrotation Xrotation Yrotation
			JOINT Neck
			{
				OFFSET -0.000000 22.498795 0.000000 
				CHANNELS 3 Zrotation Xrotation Yrotation
				JOINT Head
				{
					OFFSET -0.000000 15.237408 1.966117 
					CHANNELS 3 Zrotation Xrotation Yrotation
					End Site
					{
						OFFSET -0.000000 19.661171 0.000000 
					}
				}
			}
			JOINT LeftShoulder
			{
				OFFSET 3.894675 16.042269 -0.398189 
				CHANNELS 3 Zrotation Xrotation Yrotation
				JOINT LeftArm
				{
					OFFSET 19.709621 0.000000 0.000000 
					CHANNELS 3 Zrotation Xrotation Yrotation
					JOINT LeftForeArm
					{
						OFFSET 25.566900 0.000000 0.000000 
						CHANNELS 3 Zrotation Xrotation Yrotation
						JOINT LeftHand
						{
							OFFSET 25.401896 0.000000 0.000000 
							CHANNELS 3 Zrotation Xrotation Yrotation
							End Site
							{
								OFFSET 14.745877 0.000000 0.000000 
							}
						}
					}
				}
			}
			JOINT RightShoulder
			{
				OFFSET -3.930777 16.042269 -0.398189 
				CHANNELS 3 Zrotation Xrotation Yrotation
				JOINT RightArm
				{
					OFFSET -19.709621 0.000000 0.000000 
					CHANNELS 3 Zrotation Xrotation Yrotation
					JOINT RightForeArm
					{
						OFFSET -25.566900 0.000000 0.000000 
						CHANNELS 3 Zrotation Xrotation Yrotation
						JOINT RightHand
						{
							OFFSET -25.401896 0.000000 0.000000 
							CHANNELS 3 Zrotation Xrotation Yrotation
							End Site
							{
								OFFSET -14.745877 0.000000 0.000000 
							}
						}
					}
				}
			}
		}
	}
	JOINT LeftUpLeg
	{
		OFFSET 9.830585 0.000000 0.000000 
		CHANNELS 3 Zrotation Xrotation Yrotation
		JOINT LeftLeg
		{
			OFFSET -0.000000 -46.474842 0.000000 
			CHANNELS 3 Zrotation Xrotation Yrotation
			JOINT LeftFoot
			{
				OFFSET -0.000000 -30.290520 0.000000 
				CHANNELS 3 Zrotation Xrotation Yrotation
				JOINT LeftToeBase
				{
					OFFSET -0.000000 -6.389880 14.745877 
					CHANNELS 3 Zrotation Xrotation Yrotation
					End Site
					{
						OFFSET -0.000000 0.000000 3.932234 
					}
				}
			}
		}
	}
	JOINT RightUpLeg
	{
		OFFSET -9.830585 0.000000 0.000000 
		CHANNELS 3 Zrotation Xrotation Yrotation
		JOINT RightLeg
		{
			OFFSET -0.000000 -46.474842 0.000000 
			CHANNELS 3 Zrotation Xrotation Yrotation
			JOINT RightFoot
			{
				OFFSET -0.000000 -30.290520 0.000000 
				CHANNELS 3 Zrotation Xrotation Yrotation
				JOINT RightToeBase
				{
					OFFSET -0.000000 -6.389880 14.745877 
					CHANNELS 3 Zrotation Xrotation Yrotation
					End Site
					{
						OFFSET -0.000000 0.000000 3.932234 
					}
				}
			}
		}
	}
}
MOTION
Frames: 6
Frame Time: 0.010000
0.000000 85.420410 0.000000 -2.097195 3.507335 2.734206 1.949484 -7.284730 -0.275084 1.470052 -1.613680 -0.115311 3.308123 9.528349 1.873085 -0.541441 8.175269 2.760574 2.792814 10.992545 0.700488 -69.359344 26.689772 -24.236805 -12.186716 1.142745 -4.888437 5.740028 0.954652 6.655873 -8.056045 9.992644 -10.211971 55.782791 53.756618 37.411949 5.340408 -8.140471 9.205736 -9.438933 -8.358416 -2.543834 4.715064 3.201125 5.897480 2.347115 -7.283320 3.674269 -0.473499 4.441734 1.448976 0.000000 0.000000 0.000000 -6.110854 -3.161722 7.036698 9.786985 4.523112 -16.971674 -10.259372 0.658553 -6.904300 0.000000 0.000000 0.000000 
0.010101 85.415398 0.002769 -2.080554 3.482926 2.724611 1.848993 -7.299302 -0.241999 1.655493 -1.598299 -0.099549 3.208252 9.595364 1.820648 -0.552510 8.181406 2.688832 2.710467 11.209042 0.635399 -69.355705 26.549250 -24.412485 -12.126777 1.180196 -4.883135 5.703631 0.994070 6.672725 -8.090291 10.171769 -10.407787 55.568436 53.490376 37.699211 5.492376 -8.017097 9.224796 -9.597121 -8.242663 -2.567710 4.699751 3.248042 5.887444 2.390843 -7.305270 3.704251 -0.550038 4.496952 1.277339 0.000000 0.000000 0.000000 -6.137146 -3.074464 7.039498 9.767365 4.377951 -15.948601 -9.787641 0.796847 -8.312688 0.000000 0.000000 0.000000 
0.002560 85.412338 0.000040 -2.070764 3.499566 2.746379 1.790724 -7.324324 -0.236699 1.716152 -1.564552 -0.096457 3.224178 9.578477 1.806267 -0.572073 8.159508 2.680740 2.662461 10.974918 0.680580 -69.404213 26.605124 -24.242931 -12.164044 1.226086 -4.868686 5.685570 1.039950 6.695701 -8.087729 10.109546 -10.400237 55.519260 53.609753 37.682930 5.461356 -8.093229 9.218538 -9.622060 -8.316206 -2.558273 4.681465 3.219805 5.880394 2.362648 -7.320914 3.676736 -0.491284 4.467603 1.453767 0.000000 0.000000 0.000000 -6.132961 -3.098112 7.030331 9.757857 4.462078 -15.352180 -9.876642 0.789355 -8.822971 0.000000 0.000000 0.000000 
-0.011412 85.420441 -0.019499 -2.090651 3.519623 2.734312 1.906822 -7.325420 -0.249777 1.518149 -1.568809 -0.106199 3.346402 9.584793 1.808244 -0.619698 8.127516 2.718862 2.797139 10.968456 0.628955 -69.384880 26.650702 -24.216969 -12.184621 1.153596 -4.884124 5.700011 0.964632 6.672552 -8.041838 9.991860 -10.209397 55.738834 53.724609 37.417408 5.354054 -8.166494 9.236763 -9.627005 -8.383563 -2.534508 4.714549 3.174147 5.913559 2.357714 -7.291397 3.664555 -0.386507 4.489744 1.308518 0.000000 0.000000 0.000000 -6.117890 -3.211675 7.082342 9.780469 4.490194 -16.917559 -9.739918 0.734058 -7.520698 0.000000 0.000000 0.000000 
0.000054 85.414726 -0.014606 -2.069548 3.498247 2.731312 1.831486 -7.312118 -0.236057 1.665618 -1.579356 -0.097774 3.246513 9.610016 1.818214 -0.605979 8.130258 2.705414 2.686662 10.974277 0.688811 -69.398727 26.625452 -24.232038 -12.176703 1.208330 -4.888549 5.698278 1.020532 6.701272 -8.096248 10.127841 -10.357651 55.598969 53.513741 37.639721 5.485061 -8.058022 9.213955 -9.651449 -8.284286 -2.531387 4.679381 3.205319 5.891023 2.375826 -7.300288 3.681598 -0.396300 4.485819 1.322862 0.000000 0.000000 0.000000 -6.153075 -3.186007 7.057337 9.794668 4.499052 -16.916197 -9.791993 0.704168 -7.449989 0.000000 0.000000 0.000000 
-0.014896 85.416893 -0.017340 -2.084023 3.521994 2.758581 1.857835 -7.361377 -0.253507 1.565627 -1.516781 -0.106573 3.344669 9.484178 1.793402 -0.609694 8.264892 2.698936 2.804371 10.952914 0.604588 -69.542648 26.623346 -24.114832 -12.000820 1.195435 -4.950118 5.665296 1.005723 6.678895 -8.022161 9.957115 -10.244114 55.630051 53.820267 37.476383 5.344595 -8.246692 9.245387 -9.618142 -8.462481 -2.547390 4.669502 3.129851 5.936091 2.461094 -7.201112 3.679775 -0.576632 4.406894 1.396192 0.000000 0.000000 0.000000 -6.107026 -3.140505 7.042861 9.756215 4.471311 -15.361099 -9.869390 0.821899 -8.853215 0.000000 0.000000 0.000000 
